<svg enable-background="new 0 0 256 256" viewBox="0 0 256 256" xmlns="http://www.w3.org/2000/svg" xmlns:xlink="http://www.w3.org/1999/xlink"><linearGradient id="a" gradientTransform="matrix(0 281.3951 -281.3951 0 64013.5938 153935.3594)" gradientUnits="userSpaceOnUse" x1="-547.0995" x2="-546.0995" y1="227.0369" y2="227.0369"><stop offset="0" stop-color="#24314c"/><stop offset="1" stop-color="#373737"/></linearGradient><path d="m250.9 250.6c0 1.7-1.4 3.1-3.1 3.1h-236.6c-1.7 0-3.1-1.4-3.1-3.1v-242.2c0-1.7 1.4-3.1 3.1-3.1h236.6c1.7 0 3.1 1.4 3.1 3.1z" fill="#c1bfbf"/><path d="m247.9 247.6c0 1.7-1.4 3.1-3.1 3.1h-236.6c-1.7 0-3.1-1.4-3.1-3.1v-242.2c0-1.7 1.4-3.1 3.1-3.1h236.6c1.7 0 3.1 1.4 3.1 3.1z" fill="url(#a)"/><path d="m54.5 101.6c1.7-.1 3.3-.5 4.8-1.1s2.7-1.5 3.7-2.7 1.4-2.8 1.4-4.8c0-3-1-5.3-3-6.8-2-1.6-4.2-2.4-6.8-2.4-3.6 0-6.2 1.2-8 3.5s-2.7 5.3-2.6 8.9h-13.4c.1-3.6.8-6.8 1.9-9.8 1.2-2.9 2.8-5.4 4.9-7.6 2.1-2.1 4.6-3.7 7.5-4.9s6.1-1.7 9.7-1.7c2.8 0 5.5.4 8.3 1.2s5.3 2.1 7.5 3.7c2.2 1.7 4 3.7 5.4 6s2.1 5.1 2.1 8.2c0 3.4-.8 6.3-2.4 8.9s-4 4.3-7.2 5.2v.2c3.8.9 6.8 2.7 9 5.6 2.2 2.8 3.3 6.2 3.3 10.2 0 3.6-.7 6.9-2.1 9.7s-3.3 5.2-5.7 7.1-5.1 3.4-8.2 4.4-6.3 1.5-9.7 1.5c-3.9 0-7.5-.6-10.7-1.7s-5.9-2.8-8.2-4.9c-2.2-2.1-4-4.8-5.2-7.9s-1.8-6.7-1.7-10.7h13.4c.1 1.8.4 3.6.9 5.3s1.3 3.1 2.3 4.4c1 1.2 2.2 2.2 3.7 2.9s3.3 1.1 5.3 1.1c3.2 0 5.9-1 8-2.9s3.3-4.6 3.3-7.9c0-2.6-.5-4.7-1.6-6-1-1.4-2.4-2.4-4-3s-3.3-1-5.2-1.1-3.7-.2-5.4-.2v-10c1.4.2 3 .2 4.7.1z" fill="#1a94d1"/><path d="m121.2 81.2c7.8 0 15.6 3.2 21.3 8.7l1.5 1.5v-11.9l-.4-.3c-6.5-4.6-13.7-6.8-22-6.8-21.2 0-38.4 16.2-38.4 36.1 0 19.6 17.2 35.6 38.4 35.6 7.7 0 15.5-2.4 22-6.8l.4-.3v-11.9l-1.5 1.4c-5.9 5.5-13.6 8.7-21.1 8.7-15.3 0-28.3-12.4-28.3-27s12.9-27 28.1-27z" fill="#fff"/><path d="m144.2 94.7v27.6l12.1-14.4z" fill="#1795d2"/><g fill="#fff"><path d="m217.4 143.6-28.5-34.8 28.5-34.6h-15.1l-20.9 25.5-20.8-25.5h-15.1l28.4 34.6-28.4 34.8h14.9l21-25.6 21.1 25.6z"/><path d="m219.3 139.7c0-2.2 1.7-3.9 3.9-3.9s3.9 1.7 3.9 3.9-1.7 3.9-3.9 3.9-3.9-1.7-3.9-3.9zm7.2 0c0-1.8-1.5-3.3-3.3-3.3s-3.3 1.5-3.3 3.3 1.5 3.3 3.3 3.3 3.3-1.5 3.3-3.3zm-1.4 2.1h-.7l-1.3-2h-.7v2h-.6v-4.3h1.9c.8 0 1.5.2 1.5 1.1 0 .8-.6 1.1-1.4 1.2zm-2-2.6c.5 0 1.5.1 1.5-.6 0-.4-.6-.5-1-.5h-1.1v1.1z"/><path d="m114 157.5h3.9v13.8h6.7v3.2h-10.6z"/><path d="m131.3 158.7c0 1.1-.8 1.9-2.1 1.9-1.2 0-2-.9-2-1.9 0-1.1.8-1.9 2-1.9s2 .8 2.1 1.9zm-4 15.8v-12.4h3.8v12.4z"/><path d="m137.6 162.1 1.7 5.7c.3 1 .5 2 .7 3h.1c.2-1 .4-1.9.7-3l1.6-5.7h4l-4.6 12.4h-3.8l-4.5-12.4z"/><path d="m151.2 169.5c.1 1.6 1.7 2.4 3.5 2.4 1.3 0 2.4-.2 3.4-.5l.5 2.6c-1.3.5-2.8.8-4.5.8-4.2 0-6.6-2.4-6.6-6.3 0-3.1 1.9-6.6 6.2-6.6 4 0 5.5 3.1 5.5 6.2 0 .7-.1 1.2-.1 1.5zm4.5-2.6c0-.9-.4-2.5-2.2-2.5-1.6 0-2.3 1.5-2.4 2.5z"/><path d="m180.4 174c-.7.4-2.3.7-4.4.7-5.9 0-8.9-3.7-8.9-8.5 0-5.8 4.1-9.1 9.3-9.1 2 0 3.5.4 4.2.8l-.8 3.1c-.8-.3-1.9-.6-3.2-.6-3.1 0-5.4 1.9-5.4 5.6 0 3.4 2 5.6 5.5 5.6 1.2 0 2.4-.2 3.2-.6z"/><path d="m183.2 156.6h3.8v7.1h.1c.4-.5.9-.9 1.5-1.3.6-.3 1.3-.5 2-.5 2.4 0 4.3 1.7 4.3 5.4v7.2h-3.8v-6.8c0-1.6-.6-2.7-2-2.7-1 0-1.6.7-1.9 1.3-.1.2-.1.6-.1.9v7.3h-3.8z"/><path d="m205.5 174.5-.2-1.2h-.1c-.8 1-2.1 1.5-3.5 1.5-2.5 0-4-1.8-4-3.8 0-3.2 2.9-4.8 7.3-4.7v-.2c0-.7-.4-1.6-2.2-1.6-1.3 0-2.6.4-3.4.9l-.7-2.5c.9-.5 2.6-1.1 4.8-1.1 4.1 0 5.4 2.4 5.4 5.3v4.3c0 1.2.1 2.3.2 3zm-.4-5.8c-2 0-3.6.5-3.6 1.9 0 1 .7 1.5 1.5 1.5 1 0 1.7-.6 2-1.4.1-.2.1-.4.1-.7z"/><path d="m216.5 158.6v3.5h2.8v2.8h-2.8v4.5c0 1.5.4 2.2 1.5 2.2.5 0 .9-.1 1.1-.1v2.9c-.5.2-1.4.3-2.5.3-1.2 0-2.3-.4-2.9-1.1-.7-.7-1.1-1.9-1.1-3.7v-4.9h-1.6v-2.8h1.6v-2.7z"/><path d="m120.9 195.8-.2-1.2h-.1c-.8 1-2.1 1.5-3.5 1.5-2.5 0-4-1.8-4-3.8 0-3.2 2.9-4.8 7.3-4.7v-.2c0-.7-.3-1.6-2.2-1.6-1.3 0-2.6.4-3.4.9l-.7-2.5c.9-.5 2.6-1.1 4.8-1.1 4.1 0 5.4 2.4 5.4 5.3v4.3c0 1.2.1 2.3.2 3zm-.5-5.9c-2 0-3.6.5-3.6 1.9 0 1 .7 1.5 1.5 1.5 1 0 1.7-.6 2-1.4.1-.2.1-.4.1-.7z"/><path d="m127.7 187.4c0-1.5-.1-2.9-.1-3.9h3.3l.2 1.7h.1c.5-.8 1.8-2 3.8-2 2.5 0 4.4 1.7 4.4 5.3v7.3h-3.8v-6.9c0-1.6-.6-2.7-1.9-2.7-1.1 0-1.7.7-1.9 1.4-.1.2-.1.6-.1 1v7.1h-3.8z"/><path d="m155 177.8v14.3c0 1.4.1 2.9.1 3.7h-3.4l-.2-1.8h-.1c-.8 1.4-2.3 2.1-3.9 2.1-2.9 0-5.3-2.5-5.3-6.4 0-4.2 2.6-6.6 5.5-6.6 1.5 0 2.7.5 3.3 1.4h.1v-6.7zm-3.8 10.8c0-.2 0-.5-.1-.7-.2-1-1.1-1.9-2.2-1.9-1.7 0-2.6 1.6-2.6 3.5 0 2.1 1 3.4 2.6 3.4 1.1 0 2-.8 2.2-1.9.1-.3.1-.6.1-.9z"/><path d="m166.6 182h-4.5v-3.3h13.1v3.3h-4.7v13.8h-3.9z"/><path d="m183 195.8-.2-1.2h-.1c-.8 1-2.1 1.5-3.5 1.5-2.5 0-4-1.8-4-3.8 0-3.2 2.9-4.8 7.3-4.7v-.2c0-.7-.4-1.6-2.2-1.6-1.3 0-2.6.4-3.4.9l-.7-2.5c.9-.5 2.6-1.1 4.8-1.1 4.1 0 5.4 2.4 5.4 5.3v4.3c0 1.2.1 2.3.2 3zm-.5-5.9c-2 0-3.6.5-3.6 1.9 0 1 .7 1.5 1.5 1.5 1 0 1.7-.6 2-1.4.1-.2.1-.4.1-.7z"/><path d="m189.8 177.8h3.8v17.9h-3.8z"/><path d="m201.1 188.6c.3-.5.6-1 .9-1.5l2.5-3.7h4.6l-4.4 5 5.1 7.4h-4.7l-3-5.1-1 1.2v3.9h-3.8v-17.9h3.8z"/></g></svg>